<svg width="13" height="8" viewBox="0 0 13 8" fill="none" xmlns="http://www.w3.org/2000/svg">
<path fill-rule="evenodd" clip-rule="evenodd" d="M0.145429 0.646039C0.239233 0.551998 0.366602 0.499146 0.499429 0.499146C0.632256 0.499146 0.759625 0.551998 0.853429 0.646039L6.49943 6.29304L12.1454 0.646039C12.2719 0.519567 12.4562 0.470174 12.629 0.516466C12.8018 0.562758 12.9367 0.697702 12.983 0.870466C13.0293 1.04323 12.9799 1.22757 12.8534 1.35404L6.85343 7.35404C6.75962 7.44808 6.63226 7.50093 6.49943 7.50093C6.3666 7.50093 6.23923 7.44808 6.14543 7.35404L0.145429 1.35404C0.0513872 1.26024 -0.00146484 1.13287 -0.00146484 1.00004C-0.00146484 0.867212 0.0513872 0.739844 0.145429 0.646039Z" fill="white"/>
</svg>
